<?xml version="1.0" encoding="utf-8"?>
<!-- Generator: Adobe Illustrator 19.1.0, SVG Export Plug-In . SVG Version: 6.00 Build 0)  -->
<!DOCTYPE svg PUBLIC "-//W3C//DTD SVG 1.1//EN" "http://www.w3.org/Graphics/SVG/1.1/DTD/svg11.dtd">
<svg version="1.1" id="assets" xmlns="http://www.w3.org/2000/svg" xmlns:xlink="http://www.w3.org/1999/xlink" x="0px" y="0px"
	 viewBox="0 0 60 60" style="enable-background:new 0 0 60 60;" xml:space="preserve">
<g id="place_icon_-_workbook">
	<circle style="fill:#2A5775;" cx="30" cy="30" r="30"/>
	<g id="workbook_icon_3_">
		<path style="fill:#FFFFFF;" d="M46.5,25H45v-8h1.5c0.6,0,0.5,0.4,0.5,1v6C47,24.6,47.1,25,46.5,25z"/>
		<path style="fill:#FFFFFF;" d="M46.5,34H45v-8h1.5c0.6,0,0.5,0.4,0.5,1v6C47,33.6,47.1,34,46.5,34z"/>
		<path style="fill:#FFFFFF;" d="M46.5,43H45v-8h1.5c0.6,0,0.5,0.4,0.5,1v6C47,42.6,47.1,43,46.5,43z"/>
		<path style="fill:#FFFFFF;" d="M42.5,15h-26c-1.1,0-2.5,0.9-2.5,2v26c0,1.1,1.4,2,2.5,2h26c1.1,0,1.5-0.9,1.5-2V17
			c0-1.1-0.6-2-1.7-2H42.5z M26,31h-2v-3h2V31z M30,31h-2v-8h2V31z M34,31h-2v-6h2V31z M37,34H21v-2h16V34z"/>
	</g>
</g>
</svg>
